<mxfile host="app.diagrams.net" modified="2023-04-11T18:34:32.078Z" agent="Mozilla/5.0 (X11; Linux x86_64) AppleWebKit/537.36 (KHTML, like Gecko) Chrome/112.0.0.0 Safari/537.36" etag="qGTX5t6AWq0IjZlWWhsQ" version="21.1.6" type="device">
  <diagram name="Страница 1" id="vvs1pPOPXB_Nzjfh-il1">
    <mxGraphModel dx="1194" dy="668" grid="1" gridSize="10" guides="1" tooltips="1" connect="1" arrows="1" fold="1" page="1" pageScale="1" pageWidth="827" pageHeight="1169" math="0" shadow="0">
      <root>
        <mxCell id="0" />
        <mxCell id="1" parent="0" />
        <mxCell id="08Hu2Dc5MERAwl3HL4ha-1" value="Applicant" style="swimlane;fontStyle=0;childLayout=stackLayout;horizontal=1;startSize=26;horizontalStack=0;resizeParent=1;resizeParentMax=0;resizeLast=0;collapsible=1;marginBottom=0;align=center;fontSize=14;strokeWidth=2;" parent="1" vertex="1">
          <mxGeometry x="189" y="690" width="230" height="176" as="geometry" />
        </mxCell>
        <mxCell id="08Hu2Dc5MERAwl3HL4ha-63" value="" style="shape=table;startSize=0;container=1;collapsible=1;childLayout=tableLayout;fixedRows=1;rowLines=0;fontStyle=0;align=center;resizeLast=1;strokeColor=none;fillColor=none;collapsible=0;" parent="08Hu2Dc5MERAwl3HL4ha-1" vertex="1">
          <mxGeometry y="26" width="230" height="30" as="geometry" />
        </mxCell>
        <mxCell id="08Hu2Dc5MERAwl3HL4ha-64" value="" style="shape=tableRow;horizontal=0;startSize=0;swimlaneHead=0;swimlaneBody=0;fillColor=none;collapsible=0;dropTarget=0;points=[[0,0.5],[1,0.5]];portConstraint=eastwest;top=0;left=0;right=0;bottom=1;" parent="08Hu2Dc5MERAwl3HL4ha-63" vertex="1">
          <mxGeometry width="230" height="30" as="geometry" />
        </mxCell>
        <mxCell id="08Hu2Dc5MERAwl3HL4ha-65" value="PK" style="shape=partialRectangle;connectable=0;fillColor=none;top=0;left=0;bottom=0;right=0;fontStyle=1;overflow=hidden;whiteSpace=wrap;html=1;" parent="08Hu2Dc5MERAwl3HL4ha-64" vertex="1">
          <mxGeometry width="30" height="30" as="geometry">
            <mxRectangle width="30" height="30" as="alternateBounds" />
          </mxGeometry>
        </mxCell>
        <mxCell id="08Hu2Dc5MERAwl3HL4ha-66" value="_id" style="shape=partialRectangle;connectable=0;fillColor=none;top=0;left=0;bottom=0;right=0;align=left;spacingLeft=6;fontStyle=5;overflow=hidden;whiteSpace=wrap;html=1;" parent="08Hu2Dc5MERAwl3HL4ha-64" vertex="1">
          <mxGeometry x="30" width="200" height="30" as="geometry">
            <mxRectangle width="200" height="30" as="alternateBounds" />
          </mxGeometry>
        </mxCell>
        <mxCell id="08Hu2Dc5MERAwl3HL4ha-45" value="name: string" style="text;strokeColor=none;fillColor=none;spacingLeft=4;spacingRight=4;overflow=hidden;rotatable=0;points=[[0,0.5],[1,0.5]];portConstraint=eastwest;fontSize=12;whiteSpace=wrap;html=1;" parent="08Hu2Dc5MERAwl3HL4ha-1" vertex="1">
          <mxGeometry y="56" width="230" height="30" as="geometry" />
        </mxCell>
        <mxCell id="08Hu2Dc5MERAwl3HL4ha-3" value="email: string" style="text;strokeColor=none;fillColor=none;spacingLeft=4;spacingRight=4;overflow=hidden;rotatable=0;points=[[0,0.5],[1,0.5]];portConstraint=eastwest;fontSize=12;whiteSpace=wrap;html=1;" parent="08Hu2Dc5MERAwl3HL4ha-1" vertex="1">
          <mxGeometry y="86" width="230" height="30" as="geometry" />
        </mxCell>
        <mxCell id="08Hu2Dc5MERAwl3HL4ha-4" value="exam_results: ExamResult[]" style="text;strokeColor=none;fillColor=none;spacingLeft=4;spacingRight=4;overflow=hidden;rotatable=0;points=[[0,0.5],[1,0.5]];portConstraint=eastwest;fontSize=12;whiteSpace=wrap;html=1;" parent="08Hu2Dc5MERAwl3HL4ha-1" vertex="1">
          <mxGeometry y="116" width="230" height="30" as="geometry" />
        </mxCell>
        <mxCell id="08Hu2Dc5MERAwl3HL4ha-15" value="available_faculties: AvailableFaculty[]" style="text;strokeColor=none;fillColor=none;spacingLeft=4;spacingRight=4;overflow=hidden;rotatable=0;points=[[0,0.5],[1,0.5]];portConstraint=eastwest;fontSize=12;whiteSpace=wrap;html=1;" parent="08Hu2Dc5MERAwl3HL4ha-1" vertex="1">
          <mxGeometry y="146" width="230" height="30" as="geometry" />
        </mxCell>
        <mxCell id="08Hu2Dc5MERAwl3HL4ha-5" value="Subject" style="swimlane;fontStyle=0;childLayout=stackLayout;horizontal=1;startSize=26;horizontalStack=0;resizeParent=1;resizeParentMax=0;resizeLast=0;collapsible=1;marginBottom=0;align=center;fontSize=14;strokeWidth=2;" parent="1" vertex="1">
          <mxGeometry x="645" y="547" width="160" height="116" as="geometry" />
        </mxCell>
        <mxCell id="08Hu2Dc5MERAwl3HL4ha-71" value="" style="shape=table;startSize=0;container=1;collapsible=1;childLayout=tableLayout;fixedRows=1;rowLines=0;fontStyle=0;align=center;resizeLast=1;strokeColor=none;fillColor=none;collapsible=0;" parent="08Hu2Dc5MERAwl3HL4ha-5" vertex="1">
          <mxGeometry y="26" width="160" height="30" as="geometry" />
        </mxCell>
        <mxCell id="08Hu2Dc5MERAwl3HL4ha-72" value="" style="shape=tableRow;horizontal=0;startSize=0;swimlaneHead=0;swimlaneBody=0;fillColor=none;collapsible=0;dropTarget=0;points=[[0,0.5],[1,0.5]];portConstraint=eastwest;top=0;left=0;right=0;bottom=1;" parent="08Hu2Dc5MERAwl3HL4ha-71" vertex="1">
          <mxGeometry width="160" height="30" as="geometry" />
        </mxCell>
        <mxCell id="08Hu2Dc5MERAwl3HL4ha-73" value="PK" style="shape=partialRectangle;connectable=0;fillColor=none;top=0;left=0;bottom=0;right=0;fontStyle=1;overflow=hidden;whiteSpace=wrap;html=1;" parent="08Hu2Dc5MERAwl3HL4ha-72" vertex="1">
          <mxGeometry width="30" height="30" as="geometry">
            <mxRectangle width="30" height="30" as="alternateBounds" />
          </mxGeometry>
        </mxCell>
        <mxCell id="08Hu2Dc5MERAwl3HL4ha-74" value="_id" style="shape=partialRectangle;connectable=0;fillColor=none;top=0;left=0;bottom=0;right=0;align=left;spacingLeft=6;fontStyle=5;overflow=hidden;whiteSpace=wrap;html=1;" parent="08Hu2Dc5MERAwl3HL4ha-72" vertex="1">
          <mxGeometry x="30" width="130" height="30" as="geometry">
            <mxRectangle width="130" height="30" as="alternateBounds" />
          </mxGeometry>
        </mxCell>
        <mxCell id="08Hu2Dc5MERAwl3HL4ha-6" value="name: string&lt;br&gt;" style="text;strokeColor=none;fillColor=none;spacingLeft=4;spacingRight=4;overflow=hidden;rotatable=0;points=[[0,0.5],[1,0.5]];portConstraint=eastwest;fontSize=12;whiteSpace=wrap;html=1;" parent="08Hu2Dc5MERAwl3HL4ha-5" vertex="1">
          <mxGeometry y="56" width="160" height="30" as="geometry" />
        </mxCell>
        <mxCell id="08Hu2Dc5MERAwl3HL4ha-7" value="passing_score: number" style="text;strokeColor=none;fillColor=none;spacingLeft=4;spacingRight=4;overflow=hidden;rotatable=0;points=[[0,0.5],[1,0.5]];portConstraint=eastwest;fontSize=12;whiteSpace=wrap;html=1;" parent="08Hu2Dc5MERAwl3HL4ha-5" vertex="1">
          <mxGeometry y="86" width="160" height="30" as="geometry" />
        </mxCell>
        <mxCell id="08Hu2Dc5MERAwl3HL4ha-9" value="Faculty" style="swimlane;fontStyle=0;childLayout=stackLayout;horizontal=1;startSize=26;horizontalStack=0;resizeParent=1;resizeParentMax=0;resizeLast=0;collapsible=1;marginBottom=0;align=center;fontSize=14;strokeWidth=2;" parent="1" vertex="1">
          <mxGeometry x="194" y="420" width="220" height="172" as="geometry">
            <mxRectangle x="130" y="50" width="90" height="30" as="alternateBounds" />
          </mxGeometry>
        </mxCell>
        <mxCell id="08Hu2Dc5MERAwl3HL4ha-67" value="" style="shape=table;startSize=0;container=1;collapsible=1;childLayout=tableLayout;fixedRows=1;rowLines=0;fontStyle=0;align=center;resizeLast=1;strokeColor=none;fillColor=none;collapsible=0;" parent="08Hu2Dc5MERAwl3HL4ha-9" vertex="1">
          <mxGeometry y="26" width="220" height="30" as="geometry" />
        </mxCell>
        <mxCell id="08Hu2Dc5MERAwl3HL4ha-68" value="" style="shape=tableRow;horizontal=0;startSize=0;swimlaneHead=0;swimlaneBody=0;fillColor=none;collapsible=0;dropTarget=0;points=[[0,0.5],[1,0.5]];portConstraint=eastwest;top=0;left=0;right=0;bottom=1;" parent="08Hu2Dc5MERAwl3HL4ha-67" vertex="1">
          <mxGeometry width="220" height="30" as="geometry" />
        </mxCell>
        <mxCell id="08Hu2Dc5MERAwl3HL4ha-69" value="PK" style="shape=partialRectangle;connectable=0;fillColor=none;top=0;left=0;bottom=0;right=0;fontStyle=1;overflow=hidden;whiteSpace=wrap;html=1;" parent="08Hu2Dc5MERAwl3HL4ha-68" vertex="1">
          <mxGeometry width="30" height="30" as="geometry">
            <mxRectangle width="30" height="30" as="alternateBounds" />
          </mxGeometry>
        </mxCell>
        <mxCell id="08Hu2Dc5MERAwl3HL4ha-70" value="_id" style="shape=partialRectangle;connectable=0;fillColor=none;top=0;left=0;bottom=0;right=0;align=left;spacingLeft=6;fontStyle=5;overflow=hidden;whiteSpace=wrap;html=1;" parent="08Hu2Dc5MERAwl3HL4ha-68" vertex="1">
          <mxGeometry x="30" width="190" height="30" as="geometry">
            <mxRectangle width="190" height="30" as="alternateBounds" />
          </mxGeometry>
        </mxCell>
        <mxCell id="08Hu2Dc5MERAwl3HL4ha-48" value="name: string" style="text;strokeColor=none;fillColor=none;spacingLeft=4;spacingRight=4;overflow=hidden;rotatable=0;points=[[0,0.5],[1,0.5]];portConstraint=eastwest;fontSize=12;whiteSpace=wrap;html=1;" parent="08Hu2Dc5MERAwl3HL4ha-9" vertex="1">
          <mxGeometry y="56" width="220" height="30" as="geometry" />
        </mxCell>
        <mxCell id="08Hu2Dc5MERAwl3HL4ha-11" value="code: string" style="text;strokeColor=none;fillColor=none;spacingLeft=4;spacingRight=4;overflow=hidden;rotatable=0;points=[[0,0.5],[1,0.5]];portConstraint=eastwest;fontSize=12;whiteSpace=wrap;html=1;" parent="08Hu2Dc5MERAwl3HL4ha-9" vertex="1">
          <mxGeometry y="86" width="220" height="30" as="geometry" />
        </mxCell>
        <mxCell id="08Hu2Dc5MERAwl3HL4ha-12" value="education_form: EducationForm&amp;nbsp;" style="text;strokeColor=none;fillColor=none;spacingLeft=4;spacingRight=4;overflow=hidden;rotatable=0;points=[[0,0.5],[1,0.5]];portConstraint=eastwest;fontSize=12;whiteSpace=wrap;html=1;" parent="08Hu2Dc5MERAwl3HL4ha-9" vertex="1">
          <mxGeometry y="116" width="220" height="26" as="geometry" />
        </mxCell>
        <mxCell id="08Hu2Dc5MERAwl3HL4ha-14" value="requirements: FacultyRequirements" style="text;strokeColor=none;fillColor=none;spacingLeft=4;spacingRight=4;overflow=hidden;rotatable=0;points=[[0,0.5],[1,0.5]];portConstraint=eastwest;fontSize=12;whiteSpace=wrap;html=1;" parent="08Hu2Dc5MERAwl3HL4ha-9" vertex="1">
          <mxGeometry y="142" width="220" height="30" as="geometry" />
        </mxCell>
        <mxCell id="08Hu2Dc5MERAwl3HL4ha-16" value="ExamResult" style="swimlane;fontStyle=0;childLayout=stackLayout;horizontal=1;startSize=26;horizontalStack=0;resizeParent=1;resizeParentMax=0;resizeLast=0;collapsible=1;marginBottom=0;align=center;fontSize=14;" parent="1" vertex="1">
          <mxGeometry x="499" y="690" width="130" height="116" as="geometry" />
        </mxCell>
        <mxCell id="08Hu2Dc5MERAwl3HL4ha-83" value="" style="shape=table;startSize=0;container=1;collapsible=1;childLayout=tableLayout;fixedRows=1;rowLines=0;fontStyle=0;align=center;resizeLast=1;strokeColor=none;fillColor=none;collapsible=0;" parent="08Hu2Dc5MERAwl3HL4ha-16" vertex="1">
          <mxGeometry y="26" width="130" height="30" as="geometry" />
        </mxCell>
        <mxCell id="08Hu2Dc5MERAwl3HL4ha-84" value="" style="shape=tableRow;horizontal=0;startSize=0;swimlaneHead=0;swimlaneBody=0;fillColor=none;collapsible=0;dropTarget=0;points=[[0,0.5],[1,0.5]];portConstraint=eastwest;top=0;left=0;right=0;bottom=0;" parent="08Hu2Dc5MERAwl3HL4ha-83" vertex="1">
          <mxGeometry width="130" height="30" as="geometry" />
        </mxCell>
        <mxCell id="08Hu2Dc5MERAwl3HL4ha-85" value="FK" style="shape=partialRectangle;connectable=0;fillColor=none;top=0;left=0;bottom=0;right=0;fontStyle=0;overflow=hidden;whiteSpace=wrap;html=1;" parent="08Hu2Dc5MERAwl3HL4ha-84" vertex="1">
          <mxGeometry width="30" height="30" as="geometry">
            <mxRectangle width="30" height="30" as="alternateBounds" />
          </mxGeometry>
        </mxCell>
        <mxCell id="08Hu2Dc5MERAwl3HL4ha-86" value="subject" style="shape=partialRectangle;connectable=0;fillColor=none;top=0;left=0;bottom=0;right=0;align=left;spacingLeft=6;fontStyle=0;overflow=hidden;whiteSpace=wrap;html=1;" parent="08Hu2Dc5MERAwl3HL4ha-84" vertex="1">
          <mxGeometry x="30" width="100" height="30" as="geometry">
            <mxRectangle width="100" height="30" as="alternateBounds" />
          </mxGeometry>
        </mxCell>
        <mxCell id="08Hu2Dc5MERAwl3HL4ha-18" value="score: number" style="text;strokeColor=none;fillColor=none;spacingLeft=4;spacingRight=4;overflow=hidden;rotatable=0;points=[[0,0.5],[1,0.5]];portConstraint=eastwest;fontSize=12;whiteSpace=wrap;html=1;" parent="08Hu2Dc5MERAwl3HL4ha-16" vertex="1">
          <mxGeometry y="56" width="130" height="30" as="geometry" />
        </mxCell>
        <mxCell id="08Hu2Dc5MERAwl3HL4ha-19" value="exam_year: number" style="text;strokeColor=none;fillColor=none;spacingLeft=4;spacingRight=4;overflow=hidden;rotatable=0;points=[[0,0.5],[1,0.5]];portConstraint=eastwest;fontSize=12;whiteSpace=wrap;html=1;" parent="08Hu2Dc5MERAwl3HL4ha-16" vertex="1">
          <mxGeometry y="86" width="130" height="30" as="geometry" />
        </mxCell>
        <mxCell id="08Hu2Dc5MERAwl3HL4ha-21" value="AvailableFaculty" style="swimlane;fontStyle=0;childLayout=stackLayout;horizontal=1;startSize=26;horizontalStack=0;resizeParent=1;resizeParentMax=0;resizeLast=0;collapsible=1;marginBottom=0;align=center;fontSize=14;" parent="1" vertex="1">
          <mxGeometry x="14" y="562" width="160" height="86" as="geometry" />
        </mxCell>
        <mxCell id="08Hu2Dc5MERAwl3HL4ha-22" value="success_chance: number" style="text;strokeColor=none;fillColor=none;spacingLeft=4;spacingRight=4;overflow=hidden;rotatable=0;points=[[0,0.5],[1,0.5]];portConstraint=eastwest;fontSize=12;whiteSpace=wrap;html=1;" parent="08Hu2Dc5MERAwl3HL4ha-21" vertex="1">
          <mxGeometry y="26" width="160" height="30" as="geometry" />
        </mxCell>
        <mxCell id="08Hu2Dc5MERAwl3HL4ha-75" value="" style="shape=table;startSize=0;container=1;collapsible=1;childLayout=tableLayout;fixedRows=1;rowLines=0;fontStyle=0;align=center;resizeLast=1;strokeColor=none;fillColor=none;collapsible=0;" parent="08Hu2Dc5MERAwl3HL4ha-21" vertex="1">
          <mxGeometry y="56" width="160" height="30" as="geometry" />
        </mxCell>
        <mxCell id="08Hu2Dc5MERAwl3HL4ha-76" value="" style="shape=tableRow;horizontal=0;startSize=0;swimlaneHead=0;swimlaneBody=0;fillColor=none;collapsible=0;dropTarget=0;points=[[0,0.5],[1,0.5]];portConstraint=eastwest;top=0;left=0;right=0;bottom=0;" parent="08Hu2Dc5MERAwl3HL4ha-75" vertex="1">
          <mxGeometry width="160" height="30" as="geometry" />
        </mxCell>
        <mxCell id="08Hu2Dc5MERAwl3HL4ha-77" value="FK" style="shape=partialRectangle;connectable=0;fillColor=none;top=0;left=0;bottom=0;right=0;fontStyle=0;overflow=hidden;whiteSpace=wrap;html=1;" parent="08Hu2Dc5MERAwl3HL4ha-76" vertex="1">
          <mxGeometry width="30" height="30" as="geometry">
            <mxRectangle width="30" height="30" as="alternateBounds" />
          </mxGeometry>
        </mxCell>
        <mxCell id="08Hu2Dc5MERAwl3HL4ha-78" value="faculty" style="shape=partialRectangle;connectable=0;fillColor=none;top=0;left=0;bottom=0;right=0;align=left;spacingLeft=6;fontStyle=0;overflow=hidden;whiteSpace=wrap;html=1;" parent="08Hu2Dc5MERAwl3HL4ha-76" vertex="1">
          <mxGeometry x="30" width="130" height="30" as="geometry">
            <mxRectangle width="130" height="30" as="alternateBounds" />
          </mxGeometry>
        </mxCell>
        <mxCell id="08Hu2Dc5MERAwl3HL4ha-26" value="FacultyRequirements" style="swimlane;fontStyle=0;childLayout=stackLayout;horizontal=1;startSize=26;horizontalStack=0;resizeParent=1;resizeParentMax=0;resizeLast=0;collapsible=1;marginBottom=0;align=center;fontSize=14;" parent="1" vertex="1">
          <mxGeometry x="499" y="420" width="179" height="86" as="geometry" />
        </mxCell>
        <mxCell id="08Hu2Dc5MERAwl3HL4ha-79" value="" style="shape=table;startSize=0;container=1;collapsible=1;childLayout=tableLayout;fixedRows=1;rowLines=0;fontStyle=0;align=center;resizeLast=1;strokeColor=none;fillColor=none;collapsible=0;" parent="08Hu2Dc5MERAwl3HL4ha-26" vertex="1">
          <mxGeometry y="26" width="179" height="30" as="geometry" />
        </mxCell>
        <mxCell id="08Hu2Dc5MERAwl3HL4ha-80" value="" style="shape=tableRow;horizontal=0;startSize=0;swimlaneHead=0;swimlaneBody=0;fillColor=none;collapsible=0;dropTarget=0;points=[[0,0.5],[1,0.5]];portConstraint=eastwest;top=0;left=0;right=0;bottom=0;" parent="08Hu2Dc5MERAwl3HL4ha-79" vertex="1">
          <mxGeometry width="179" height="30" as="geometry" />
        </mxCell>
        <mxCell id="08Hu2Dc5MERAwl3HL4ha-81" value="FK" style="shape=partialRectangle;connectable=0;fillColor=none;top=0;left=0;bottom=0;right=0;fontStyle=0;overflow=hidden;whiteSpace=wrap;html=1;" parent="08Hu2Dc5MERAwl3HL4ha-80" vertex="1">
          <mxGeometry width="51" height="30" as="geometry">
            <mxRectangle width="51" height="30" as="alternateBounds" />
          </mxGeometry>
        </mxCell>
        <mxCell id="08Hu2Dc5MERAwl3HL4ha-82" value="subjects" style="shape=partialRectangle;connectable=0;fillColor=none;top=0;left=0;bottom=0;right=0;align=left;spacingLeft=6;fontStyle=0;overflow=hidden;whiteSpace=wrap;html=1;" parent="08Hu2Dc5MERAwl3HL4ha-80" vertex="1">
          <mxGeometry x="51" width="128" height="30" as="geometry">
            <mxRectangle width="128" height="30" as="alternateBounds" />
          </mxGeometry>
        </mxCell>
        <mxCell id="08Hu2Dc5MERAwl3HL4ha-27" value="average_score: number" style="text;strokeColor=none;fillColor=none;spacingLeft=4;spacingRight=4;overflow=hidden;rotatable=0;points=[[0,0.5],[1,0.5]];portConstraint=eastwest;fontSize=12;whiteSpace=wrap;html=1;" parent="08Hu2Dc5MERAwl3HL4ha-26" vertex="1">
          <mxGeometry y="56" width="179" height="30" as="geometry" />
        </mxCell>
        <mxCell id="08Hu2Dc5MERAwl3HL4ha-33" value="" style="edgeStyle=orthogonalEdgeStyle;fontSize=12;html=1;endArrow=ERzeroToMany;rounded=0;curved=1;startArrow=ERmandOne;startFill=0;endFill=0;" parent="1" source="08Hu2Dc5MERAwl3HL4ha-4" target="08Hu2Dc5MERAwl3HL4ha-16" edge="1">
          <mxGeometry width="100" height="100" relative="1" as="geometry">
            <mxPoint x="364" y="750" as="sourcePoint" />
            <mxPoint x="464" y="650" as="targetPoint" />
          </mxGeometry>
        </mxCell>
        <mxCell id="08Hu2Dc5MERAwl3HL4ha-34" value="" style="edgeStyle=orthogonalEdgeStyle;fontSize=12;html=1;endArrow=ERzeroToMany;rounded=0;curved=1;startArrow=ERmandOne;startFill=0;endFill=0;" parent="1" source="08Hu2Dc5MERAwl3HL4ha-15" target="08Hu2Dc5MERAwl3HL4ha-21" edge="1">
          <mxGeometry width="100" height="100" relative="1" as="geometry">
            <mxPoint x="364" y="750" as="sourcePoint" />
            <mxPoint x="474" y="911" as="targetPoint" />
          </mxGeometry>
        </mxCell>
        <mxCell id="08Hu2Dc5MERAwl3HL4ha-37" value="" style="edgeStyle=orthogonalEdgeStyle;fontSize=12;html=1;endArrow=ERzeroToMany;startArrow=ERoneToMany;rounded=0;curved=1;startFill=0;endFill=0;" parent="1" source="08Hu2Dc5MERAwl3HL4ha-5" target="08Hu2Dc5MERAwl3HL4ha-80" edge="1">
          <mxGeometry width="100" height="100" relative="1" as="geometry">
            <mxPoint x="544" y="590" as="sourcePoint" />
            <mxPoint x="645" y="491.0526315789473" as="targetPoint" />
          </mxGeometry>
        </mxCell>
        <mxCell id="08Hu2Dc5MERAwl3HL4ha-39" value="" style="edgeStyle=orthogonalEdgeStyle;fontSize=12;html=1;endArrow=ERzeroToMany;startArrow=ERoneToMany;rounded=0;curved=1;startFill=0;endFill=0;" parent="1" source="08Hu2Dc5MERAwl3HL4ha-5" target="08Hu2Dc5MERAwl3HL4ha-84" edge="1">
          <mxGeometry width="100" height="100" relative="1" as="geometry">
            <mxPoint x="374" y="710" as="sourcePoint" />
            <mxPoint x="629" y="731.0526315789473" as="targetPoint" />
          </mxGeometry>
        </mxCell>
        <mxCell id="08Hu2Dc5MERAwl3HL4ha-40" value="" style="edgeStyle=orthogonalEdgeStyle;fontSize=12;html=1;endArrow=ERoneToMany;startArrow=ERzeroToMany;rounded=0;curved=1;startFill=0;endFill=0;" parent="1" source="08Hu2Dc5MERAwl3HL4ha-76" target="08Hu2Dc5MERAwl3HL4ha-9" edge="1">
          <mxGeometry width="100" height="100" relative="1" as="geometry">
            <mxPoint x="174" y="632.9473684210527" as="sourcePoint" />
            <mxPoint x="454" y="450" as="targetPoint" />
          </mxGeometry>
        </mxCell>
        <mxCell id="08Hu2Dc5MERAwl3HL4ha-41" value="EducationForm&lt;br&gt;&quot;enum&quot;" style="swimlane;childLayout=stackLayout;horizontal=1;startSize=50;horizontalStack=0;rounded=1;fontSize=14;fontStyle=0;strokeWidth=2;resizeParent=0;resizeLast=1;shadow=0;dashed=0;align=center;arcSize=4;whiteSpace=wrap;html=1;" parent="1" vertex="1">
          <mxGeometry x="350" y="190" width="160" height="110" as="geometry" />
        </mxCell>
        <mxCell id="08Hu2Dc5MERAwl3HL4ha-42" value="+&quot;Очная&quot;&lt;br&gt;+&quot;Заочная&quot;&lt;br&gt;+&quot;Смешанная&quot;" style="align=left;strokeColor=none;fillColor=none;spacingLeft=4;fontSize=12;verticalAlign=top;resizable=0;rotatable=0;part=1;html=1;" parent="08Hu2Dc5MERAwl3HL4ha-41" vertex="1">
          <mxGeometry y="50" width="160" height="60" as="geometry" />
        </mxCell>
        <mxCell id="08Hu2Dc5MERAwl3HL4ha-43" value="" style="edgeStyle=orthogonalEdgeStyle;fontSize=12;html=1;endArrow=ERmandOne;startArrow=ERmandOne;rounded=0;curved=1;" parent="1" source="08Hu2Dc5MERAwl3HL4ha-14" target="08Hu2Dc5MERAwl3HL4ha-26" edge="1">
          <mxGeometry width="100" height="100" relative="1" as="geometry">
            <mxPoint x="424" y="670" as="sourcePoint" />
            <mxPoint x="524" y="570" as="targetPoint" />
          </mxGeometry>
        </mxCell>
        <mxCell id="KVPZecC6MmLTc_1_bUcK-1" value="" style="endArrow=none;html=1;rounded=0;edgeStyle=orthogonalEdgeStyle;curved=1;" parent="1" source="08Hu2Dc5MERAwl3HL4ha-41" target="08Hu2Dc5MERAwl3HL4ha-12" edge="1">
          <mxGeometry relative="1" as="geometry">
            <mxPoint x="250" y="430" as="sourcePoint" />
            <mxPoint x="410" y="430" as="targetPoint" />
          </mxGeometry>
        </mxCell>
      </root>
    </mxGraphModel>
  </diagram>
</mxfile>
